# xmcd CD Database Entry
#
# Track frame offsets:
# 150
# 22950
# 42825
# 77375
# 100275
# 127450
# 154725
# 173825
#
# Disc length: 2645 seconds
#
# Revision: 1
# Processed by: cddbd v1.4PL0 Copyright (c) Steve Scherf et al.
# Submitted via: tcd 2.0b
#
DISCID=5c0a5308
DTITLE=Zoot Sims plus Joe Pass
DYEAR=1900
DGENRE=
TTITLE0=Blues for 2
TTITLE1=Dindi
TTITLE2=Pennies from Heaven
TTITLE3=Poor Butterfly
TTITLE4=(What did y do to be so) Black and Blue
TTITLE5=I hadn'tanyone till you
TTITLE6=Takeoff
TTITLE7=Remember
EXTD=Blues for 2
EXTT0=
EXTT1=
EXTT2=
EXTT3=
EXTT4=
EXTT5=
EXTT6=
EXTT7=
PLAYORDER=
